<svg width="68" height="67" viewBox="0 0 68 67" fill="none" xmlns="http://www.w3.org/2000/svg">
<path d="M20.8502 24.144V27.1283C21.8709 27.1049 22.8706 27.0474 23.8368 26.9574C23.8368 26.9443 23.8349 26.9319 23.8349 26.9189V23.9807C22.8651 24.0668 21.8667 24.1215 20.8502 24.144Z" fill="url(#paint0_linear_13_865)"/>
<path d="M33.9917 23.0215V21.1912C33.2596 21.6753 32.2866 22.1472 31.0071 22.5813V25.434C33.1041 24.6186 33.9242 23.7459 33.9873 23.1806C33.9846 23.1275 33.9861 23.0743 33.9917 23.0215Z" fill="url(#paint1_linear_13_865)"/>
<path d="M15.7716 23.9807V26.9189C15.7716 26.932 15.7701 26.9451 15.7696 26.9574C16.736 27.0474 17.7353 27.1049 18.7564 27.1283V24.144C17.7398 24.1216 16.7415 24.0668 15.7716 23.9807Z" fill="url(#paint2_linear_13_865)"/>
<path d="M13.6778 23.7404C12.6298 23.5913 11.6303 23.4031 10.6931 23.1787V26.0998C11.6767 26.3535 12.6729 26.5552 13.6778 26.7039V23.7404Z" fill="url(#paint3_linear_13_865)"/>
<path d="M26.0176 38.1087C25.6407 38.1174 25.2621 38.1218 24.8816 38.1218C20.7026 38.1218 16.7591 37.5745 13.7776 36.5807C9.72589 35.2302 8.70545 33.4971 8.60862 32.21C6.55203 33.0121 5.61469 33.9164 5.61469 34.5362C5.61469 35.1586 6.59613 36.2124 9.36119 37.1342C12.1354 38.0587 15.8432 38.5679 19.8038 38.5679C21.8837 38.5714 23.9608 38.4179 26.0176 38.1087Z" fill="url(#paint4_linear_13_865)"/>
<path d="M9.36119 20.6295C12.1354 21.554 15.8432 22.0632 19.8038 22.0632C23.7644 22.0632 27.4721 21.554 30.2463 20.6295C33.0117 19.7077 33.9928 18.6535 33.9928 18.0315C33.9928 17.4095 33.0114 16.3556 30.2463 15.4337C27.4721 14.509 23.7644 14 19.8038 14C15.8432 14 12.1354 14.509 9.36119 15.4337C6.59613 16.3556 5.61469 17.4091 5.61469 18.0315C5.61469 18.6539 6.59613 19.7077 9.36119 20.6295Z" fill="url(#paint5_linear_13_865)"/>
<path d="M8.59946 25.4335V22.5808C7.31978 22.1472 6.3475 21.6749 5.61469 21.1912V23.11C5.61469 23.6713 6.41293 24.5837 8.59946 25.4335Z" fill="url(#paint6_linear_13_865)"/>
<path d="M5.61469 39.6151C5.61469 40.1765 6.41293 41.0887 8.59946 41.9386V39.0859C7.31978 38.6524 6.3475 38.1801 5.61469 37.6963V39.6151Z" fill="url(#paint7_linear_13_865)"/>
<path d="M33.9807 32.0698C33.0465 32.2933 32.0514 32.4811 31.0071 32.6295V35.5897C31.7042 35.4843 32.3792 35.3612 33.0244 35.2195C33.2351 34.1398 33.5555 33.0844 33.9807 32.0698Z" fill="url(#paint8_linear_13_865)"/>
<path d="M31.0071 41.9382C31.6849 41.6884 32.3313 41.3607 32.9333 40.9616C32.796 40.1147 32.7257 39.2583 32.7229 38.4004C32.1647 38.6631 31.5918 38.8935 31.0071 39.0903V41.9382Z" fill="url(#paint9_linear_13_865)"/>
<path d="M19.8034 29.2353C17.2792 29.246 14.7592 29.0303 12.2736 28.5906C12.9649 28.9667 13.6902 29.2768 14.4397 29.5168C17.2139 30.4413 20.9218 30.9505 24.8823 30.9505C28.8056 30.9505 32.594 30.4271 35.334 29.5111C36.2024 28.1726 37.2613 26.9679 38.4774 25.9351C37.9042 25.4163 36.9584 24.9091 35.7444 24.4683C35.1902 25.5341 33.8459 26.7147 30.9078 27.6941C27.9263 28.6881 23.9824 29.2353 19.8034 29.2353Z" fill="url(#paint10_linear_13_865)"/>
<path d="M25.9286 33.0314V36.0165C26.9456 35.993 27.9451 35.9346 28.9153 35.8438C28.9153 35.8307 28.9133 35.8188 28.9133 35.8061V32.8694C27.9447 32.9551 26.9463 33.009 25.9286 33.0314Z" fill="url(#paint11_linear_13_865)"/>
<path d="M18.7562 35.5912V32.6278C17.7082 32.4788 16.7088 32.2906 15.7715 32.0662V34.9871C16.7551 35.2408 17.7514 35.4425 18.7562 35.5912Z" fill="url(#paint12_linear_13_865)"/>
<path d="M10.6931 31.9977C10.6931 32.5591 11.492 33.4714 13.6778 34.3212V31.4685C12.3981 31.0344 11.4253 30.5623 10.6931 30.0784V31.9977Z" fill="url(#paint13_linear_13_865)"/>
<path d="M20.8481 35.845C21.8143 35.935 22.8137 35.9924 23.8347 36.0159V33.0315C22.8181 33.0091 21.8194 32.9543 20.85 32.8682V35.8057C20.85 35.8188 20.8486 35.8319 20.8481 35.845Z" fill="url(#paint14_linear_13_865)"/>
<path d="M25.9286 23.7402V26.7037C26.9334 26.5549 27.9297 26.3533 28.9133 26.0995V23.1787C27.9761 23.4031 26.9766 23.5913 25.9286 23.7402Z" fill="url(#paint15_linear_13_865)"/>
<path d="M19.8034 45.7402C17.2792 45.7509 14.7592 45.5352 12.2736 45.0955C12.9649 45.4716 13.6902 45.7817 14.4397 46.0217C17.2139 46.9462 20.9218 47.4554 24.8823 47.4554C28.5594 47.4554 32.068 47.0038 34.7479 46.2022C34.2039 45.2193 33.7636 44.1824 33.4341 43.1084C30.5361 44.7341 25.4531 45.7402 19.8034 45.7402Z" fill="url(#paint16_linear_13_865)"/>
<path d="M31.0071 52.0997C32.012 51.9507 33.0083 51.7484 33.9917 51.4936V48.5701C33.0567 48.7925 32.0559 48.9806 31.0071 49.13V52.0997Z" fill="url(#paint17_linear_13_865)"/>
<path d="M28.9133 49.3713C27.9416 49.4584 26.9425 49.5141 25.9286 49.537V52.5213C26.9781 52.4978 27.9748 52.4397 28.9154 52.3526C28.9154 52.3387 28.9133 52.3252 28.9133 52.3112V49.3713Z" fill="url(#paint18_linear_13_865)"/>
<path d="M36.0857 50.8224C36.6434 50.6101 37.1823 50.3512 37.6966 50.0484C37.1159 49.4871 36.5775 48.8837 36.0857 48.2432V50.8224Z" fill="url(#paint19_linear_13_865)"/>
<path d="M49.0041 29.2354C47.2023 29.2353 45.4409 29.7696 43.9428 30.7706C42.4446 31.7717 41.2769 33.1945 40.5873 34.8591C39.8978 36.5238 39.7174 38.3555 40.0689 40.1228C40.4204 41.89 41.288 43.5132 42.5621 44.7873C43.8362 46.0614 45.4594 46.9291 47.2267 47.2806C48.9939 47.6322 50.8256 47.4518 52.4903 46.7622C54.155 46.0727 55.5778 44.905 56.5788 43.4069C57.5799 41.9087 58.1142 40.1473 58.1142 38.3455C58.1113 35.9302 57.1506 33.6147 55.4428 31.9068C53.7349 30.199 51.4194 29.2382 49.0041 29.2354ZM54.1771 40.7102C54.1772 40.8939 54.1288 41.0745 54.0369 41.2337C53.945 41.3928 53.8129 41.525 53.6537 41.6169L49.6312 43.9391C49.4721 44.031 49.2915 44.0794 49.1078 44.0794C48.924 44.0794 48.7435 44.031 48.5843 43.9391L44.562 41.6167C44.4028 41.5249 44.2707 41.3927 44.1788 41.2336C44.0869 41.0744 44.0385 40.8939 44.0385 40.7102V36.0656C44.0385 35.8818 44.0869 35.7013 44.1788 35.5421C44.2707 35.383 44.4028 35.2508 44.562 35.159L48.5843 32.8366C48.7435 32.7447 48.924 32.6963 49.1078 32.6963C49.2915 32.6963 49.4721 32.7447 49.6312 32.8366L53.6537 35.159C53.8129 35.2509 53.945 35.383 54.0369 35.5422C54.1288 35.7014 54.1772 35.8819 54.1771 36.0657V40.7102Z" fill="url(#paint20_linear_13_865)"/>
<path d="M49.004 24.1569C46.4573 24.1559 43.9574 24.8406 41.7666 26.1392C39.5759 27.4377 37.7752 29.3022 36.5536 31.5368C35.3321 33.7714 34.7348 36.2937 34.8244 38.8388C34.914 41.3839 35.6873 43.858 37.063 46.0011C37.1806 46.1098 37.2716 46.2441 37.3288 46.3937C37.3297 46.396 37.3302 46.3984 37.3311 46.4006C38.7182 48.4103 40.6005 50.028 42.796 51.097C44.9914 52.166 47.4257 52.6502 49.8631 52.5027C52.3005 52.3553 54.6586 51.5811 56.7092 50.2552C58.7598 48.9293 60.4334 47.0966 61.568 44.9343C62.7027 42.772 63.26 40.3535 63.186 37.9127C63.112 35.4719 62.4092 33.0916 61.1456 31.002C59.8821 28.9125 58.1006 27.1844 55.9734 25.9852C53.8463 24.7859 51.4457 24.156 49.0038 24.1565L49.004 24.1569ZM49.004 49.5492C46.7881 49.5493 44.6219 48.8922 42.7794 47.6611C40.9369 46.43 39.5009 44.6802 38.6528 42.6329C37.8048 40.5857 37.5829 38.3329 38.0152 36.1596C38.4475 33.9862 39.5146 31.9899 41.0815 30.4229C42.6484 28.856 44.6448 27.789 46.8182 27.3567C48.9915 26.9244 51.2443 27.1463 53.2915 27.9943C55.3388 28.8423 57.0886 30.2783 58.3197 32.1208C59.5508 33.9633 60.2078 36.1295 60.2078 38.3454C60.2045 41.3158 59.023 44.1636 56.9226 46.264C54.8222 48.3644 51.9744 49.5459 49.004 49.5492Z" fill="url(#paint21_linear_13_865)"/>
<path d="M46.1325 36.67V40.1057L49.1079 41.8237L52.0836 40.1057V36.67L49.1079 34.9519L46.1325 36.67Z" fill="url(#paint22_linear_13_865)"/>
<path d="M25.9286 43.1991C26.933 43.05 27.9292 42.8501 28.9133 42.6V39.6897C27.9817 39.9122 26.9817 40.0997 25.9286 40.2489V43.1991Z" fill="url(#paint23_linear_13_865)"/>
<path d="M15.7693 43.4623C16.7357 43.5523 17.735 43.6097 18.7561 43.6332V40.6489C17.7396 40.6264 16.7408 40.5717 15.7713 40.4856V43.4238C15.7716 43.4367 15.7701 43.4493 15.7693 43.4623Z" fill="url(#paint24_linear_13_865)"/>
<path d="M13.6778 43.2089V40.2455C12.6298 40.0964 11.6303 39.9083 10.6931 39.6838V42.6048C11.6767 42.8585 12.6729 43.0602 13.6778 43.2089Z" fill="url(#paint25_linear_13_865)"/>
<path d="M20.8502 40.65V43.6336C21.8686 43.609 22.869 43.5484 23.8366 43.4562C23.8366 43.4454 23.8349 43.4348 23.8349 43.424V40.4885C22.8698 40.5736 21.8714 40.6278 20.8502 40.65Z" fill="url(#paint26_linear_13_865)"/>
<path d="M10.6931 48.5023C10.6931 49.0637 11.492 49.9759 13.6778 50.8259V47.9731C12.3981 47.5391 11.4253 47.0668 10.6931 46.583V48.5023Z" fill="url(#paint27_linear_13_865)"/>
<path d="M20.85 52.3112C20.85 52.3243 20.8486 52.3374 20.8481 52.3497C21.8143 52.4397 22.8137 52.4972 23.8347 52.5206V49.5364C22.8181 49.514 21.8194 49.4592 20.85 49.373V52.3112Z" fill="url(#paint28_linear_13_865)"/>
<path d="M15.7715 51.4922C16.7551 51.746 17.7514 51.9476 18.7562 52.0964V49.1329C17.7082 48.9839 16.7088 48.7957 15.7715 48.5713V51.4922Z" fill="url(#paint29_linear_13_865)"/>
<path d="M20.8502 24.144V27.1283C21.8709 27.1049 22.8706 27.0474 23.8368 26.9574C23.8368 26.9443 23.8349 26.9319 23.8349 26.9189V23.9807C22.8651 24.0668 21.8667 24.1215 20.8502 24.144Z" fill="url(#paint30_linear_13_865)"/>
<path d="M33.9917 23.0215V21.1912C33.2596 21.6753 32.2866 22.1472 31.0071 22.5813V25.434C33.1041 24.6186 33.9242 23.7459 33.9873 23.1806C33.9846 23.1275 33.9861 23.0743 33.9917 23.0215Z" fill="url(#paint31_linear_13_865)"/>
<path d="M15.7716 23.9807V26.9189C15.7716 26.932 15.7701 26.9451 15.7696 26.9574C16.736 27.0474 17.7353 27.1049 18.7564 27.1283V24.144C17.7398 24.1216 16.7415 24.0668 15.7716 23.9807Z" fill="url(#paint32_linear_13_865)"/>
<path d="M13.6778 23.7404C12.6298 23.5913 11.6303 23.4031 10.6931 23.1787V26.0998C11.6767 26.3535 12.6729 26.5552 13.6778 26.7039V23.7404Z" fill="url(#paint33_linear_13_865)"/>
<path d="M26.0176 38.1087C25.6407 38.1174 25.2621 38.1218 24.8816 38.1218C20.7026 38.1218 16.7591 37.5745 13.7776 36.5807C9.72589 35.2302 8.70545 33.4971 8.60862 32.21C6.55203 33.0121 5.61469 33.9164 5.61469 34.5362C5.61469 35.1586 6.59613 36.2124 9.36119 37.1342C12.1354 38.0587 15.8432 38.5679 19.8038 38.5679C21.8837 38.5714 23.9608 38.4179 26.0176 38.1087Z" fill="url(#paint34_linear_13_865)"/>
<path d="M9.36119 20.6295C12.1354 21.554 15.8432 22.0632 19.8038 22.0632C23.7644 22.0632 27.4721 21.554 30.2463 20.6295C33.0117 19.7077 33.9928 18.6535 33.9928 18.0315C33.9928 17.4095 33.0114 16.3556 30.2463 15.4337C27.4721 14.509 23.7644 14 19.8038 14C15.8432 14 12.1354 14.509 9.36119 15.4337C6.59613 16.3556 5.61469 17.4091 5.61469 18.0315C5.61469 18.6539 6.59613 19.7077 9.36119 20.6295Z" fill="url(#paint35_linear_13_865)"/>
<path d="M8.59946 25.4335V22.5808C7.31978 22.1472 6.3475 21.6749 5.61469 21.1912V23.11C5.61469 23.6713 6.41293 24.5837 8.59946 25.4335Z" fill="url(#paint36_linear_13_865)"/>
<path d="M5.61469 39.6151C5.61469 40.1765 6.41293 41.0887 8.59946 41.9386V39.0859C7.31978 38.6524 6.3475 38.1801 5.61469 37.6963V39.6151Z" fill="url(#paint37_linear_13_865)"/>
<path d="M33.9807 32.0698C33.0465 32.2933 32.0514 32.4811 31.0071 32.6295V35.5897C31.7042 35.4843 32.3792 35.3612 33.0244 35.2195C33.2351 34.1398 33.5555 33.0844 33.9807 32.0698Z" fill="url(#paint38_linear_13_865)"/>
<path d="M31.0071 41.9382C31.6849 41.6884 32.3313 41.3607 32.9333 40.9616C32.796 40.1147 32.7257 39.2583 32.7229 38.4004C32.1647 38.6631 31.5918 38.8935 31.0071 39.0903V41.9382Z" fill="url(#paint39_linear_13_865)"/>
<path d="M19.8034 29.2353C17.2792 29.246 14.7592 29.0303 12.2736 28.5906C12.9649 28.9667 13.6902 29.2768 14.4397 29.5168C17.2139 30.4413 20.9218 30.9505 24.8823 30.9505C28.8056 30.9505 32.594 30.4271 35.334 29.5111C36.2024 28.1726 37.2613 26.9679 38.4774 25.9351C37.9042 25.4163 36.9584 24.9091 35.7444 24.4683C35.1902 25.5341 33.8459 26.7147 30.9078 27.6941C27.9263 28.6881 23.9824 29.2353 19.8034 29.2353Z" fill="url(#paint40_linear_13_865)"/>
<path d="M25.9286 33.0314V36.0165C26.9456 35.993 27.9451 35.9346 28.9153 35.8438C28.9153 35.8307 28.9133 35.8188 28.9133 35.8061V32.8694C27.9447 32.9551 26.9463 33.009 25.9286 33.0314Z" fill="url(#paint41_linear_13_865)"/>
<path d="M18.7562 35.5912V32.6278C17.7082 32.4788 16.7088 32.2906 15.7715 32.0662V34.9871C16.7551 35.2408 17.7514 35.4425 18.7562 35.5912Z" fill="url(#paint42_linear_13_865)"/>
<path d="M10.6931 31.9977C10.6931 32.5591 11.492 33.4714 13.6778 34.3212V31.4685C12.3981 31.0344 11.4253 30.5623 10.6931 30.0784V31.9977Z" fill="url(#paint43_linear_13_865)"/>
<path d="M20.8481 35.845C21.8143 35.935 22.8137 35.9924 23.8347 36.0159V33.0315C22.8181 33.0091 21.8194 32.9543 20.85 32.8682V35.8057C20.85 35.8188 20.8486 35.8319 20.8481 35.845Z" fill="url(#paint44_linear_13_865)"/>
<path d="M25.9286 23.7402V26.7037C26.9334 26.5549 27.9297 26.3533 28.9133 26.0995V23.1787C27.9761 23.4031 26.9766 23.5913 25.9286 23.7402Z" fill="url(#paint45_linear_13_865)"/>
<path d="M19.8034 45.7402C17.2792 45.7509 14.7592 45.5352 12.2736 45.0955C12.9649 45.4716 13.6902 45.7817 14.4397 46.0217C17.2139 46.9462 20.9218 47.4554 24.8823 47.4554C28.5594 47.4554 32.068 47.0038 34.7479 46.2022C34.2039 45.2193 33.7636 44.1824 33.4341 43.1084C30.5361 44.7341 25.4531 45.7402 19.8034 45.7402Z" fill="url(#paint46_linear_13_865)"/>
<path d="M31.0071 52.0997C32.012 51.9507 33.0083 51.7484 33.9917 51.4936V48.5701C33.0567 48.7925 32.0559 48.9806 31.0071 49.13V52.0997Z" fill="url(#paint47_linear_13_865)"/>
<path d="M28.9133 49.3713C27.9416 49.4584 26.9425 49.5141 25.9286 49.537V52.5213C26.9781 52.4978 27.9748 52.4397 28.9154 52.3526C28.9154 52.3387 28.9133 52.3252 28.9133 52.3112V49.3713Z" fill="url(#paint48_linear_13_865)"/>
<path d="M36.0857 50.8224C36.6434 50.6101 37.1823 50.3512 37.6966 50.0484C37.1159 49.4871 36.5775 48.8837 36.0857 48.2432V50.8224Z" fill="url(#paint49_linear_13_865)"/>
<path d="M49.0041 29.2354C47.2023 29.2353 45.4409 29.7696 43.9428 30.7706C42.4446 31.7717 41.2769 33.1945 40.5873 34.8591C39.8978 36.5238 39.7174 38.3555 40.0689 40.1228C40.4204 41.89 41.288 43.5132 42.5621 44.7873C43.8362 46.0614 45.4594 46.9291 47.2267 47.2806C48.9939 47.6322 50.8256 47.4518 52.4903 46.7622C54.155 46.0727 55.5778 44.905 56.5788 43.4069C57.5799 41.9087 58.1142 40.1473 58.1142 38.3455C58.1113 35.9302 57.1506 33.6147 55.4428 31.9068C53.7349 30.199 51.4194 29.2382 49.0041 29.2354ZM54.1771 40.7102C54.1772 40.8939 54.1288 41.0745 54.0369 41.2337C53.945 41.3928 53.8129 41.525 53.6537 41.6169L49.6312 43.9391C49.4721 44.031 49.2915 44.0794 49.1078 44.0794C48.924 44.0794 48.7435 44.031 48.5843 43.9391L44.562 41.6167C44.4028 41.5249 44.2707 41.3927 44.1788 41.2336C44.0869 41.0744 44.0385 40.8939 44.0385 40.7102V36.0656C44.0385 35.8818 44.0869 35.7013 44.1788 35.5421C44.2707 35.383 44.4028 35.2508 44.562 35.159L48.5843 32.8366C48.7435 32.7447 48.924 32.6963 49.1078 32.6963C49.2915 32.6963 49.4721 32.7447 49.6312 32.8366L53.6537 35.159C53.8129 35.2509 53.945 35.383 54.0369 35.5422C54.1288 35.7014 54.1772 35.8819 54.1771 36.0657V40.7102Z" fill="url(#paint50_linear_13_865)"/>
<path d="M49.004 24.1569C46.4573 24.1559 43.9574 24.8406 41.7666 26.1392C39.5759 27.4377 37.7752 29.3022 36.5536 31.5368C35.3321 33.7714 34.7348 36.2937 34.8244 38.8388C34.914 41.3839 35.6873 43.858 37.063 46.0011C37.1806 46.1098 37.2716 46.2441 37.3288 46.3937C37.3297 46.396 37.3302 46.3984 37.3311 46.4006C38.7182 48.4103 40.6005 50.028 42.796 51.097C44.9914 52.166 47.4257 52.6502 49.8631 52.5027C52.3005 52.3553 54.6586 51.5811 56.7092 50.2552C58.7598 48.9293 60.4334 47.0966 61.568 44.9343C62.7027 42.772 63.26 40.3535 63.186 37.9127C63.112 35.4719 62.4092 33.0916 61.1456 31.002C59.8821 28.9125 58.1006 27.1844 55.9734 25.9852C53.8463 24.7859 51.4457 24.156 49.0038 24.1565L49.004 24.1569ZM49.004 49.5492C46.7881 49.5493 44.6219 48.8922 42.7794 47.6611C40.9369 46.43 39.5009 44.6802 38.6528 42.6329C37.8048 40.5857 37.5829 38.3329 38.0152 36.1596C38.4475 33.9862 39.5146 31.9899 41.0815 30.4229C42.6484 28.856 44.6448 27.789 46.8182 27.3567C48.9915 26.9244 51.2443 27.1463 53.2915 27.9943C55.3388 28.8423 57.0886 30.2783 58.3197 32.1208C59.5508 33.9633 60.2078 36.1295 60.2078 38.3454C60.2045 41.3158 59.023 44.1636 56.9226 46.264C54.8222 48.3644 51.9744 49.5459 49.004 49.5492Z" fill="url(#paint51_linear_13_865)"/>
<path d="M46.1325 36.67V40.1057L49.1079 41.8237L52.0836 40.1057V36.67L49.1079 34.9519L46.1325 36.67Z" fill="url(#paint52_linear_13_865)"/>
<path d="M25.9286 43.1991C26.933 43.05 27.9292 42.8501 28.9133 42.6V39.6897C27.9817 39.9122 26.9817 40.0997 25.9286 40.2489V43.1991Z" fill="url(#paint53_linear_13_865)"/>
<path d="M15.7693 43.4623C16.7357 43.5523 17.735 43.6097 18.7561 43.6332V40.6489C17.7396 40.6264 16.7408 40.5717 15.7713 40.4856V43.4238C15.7716 43.4367 15.7701 43.4493 15.7693 43.4623Z" fill="url(#paint54_linear_13_865)"/>
<path d="M13.6778 43.2089V40.2455C12.6298 40.0964 11.6303 39.9083 10.6931 39.6838V42.6048C11.6767 42.8585 12.6729 43.0602 13.6778 43.2089Z" fill="url(#paint55_linear_13_865)"/>
<path d="M20.8502 40.65V43.6336C21.8686 43.609 22.869 43.5484 23.8366 43.4562C23.8366 43.4454 23.8349 43.4348 23.8349 43.424V40.4885C22.8698 40.5736 21.8714 40.6278 20.8502 40.65Z" fill="url(#paint56_linear_13_865)"/>
<path d="M10.6931 48.5023C10.6931 49.0637 11.492 49.9759 13.6778 50.8259V47.9731C12.3981 47.5391 11.4253 47.0668 10.6931 46.583V48.5023Z" fill="url(#paint57_linear_13_865)"/>
<path d="M20.85 52.3112C20.85 52.3243 20.8486 52.3374 20.8481 52.3497C21.8143 52.4397 22.8137 52.4972 23.8347 52.5206V49.5364C22.8181 49.514 21.8194 49.4592 20.85 49.373V52.3112Z" fill="url(#paint58_linear_13_865)"/>
<path d="M15.7715 51.4922C16.7551 51.746 17.7514 51.9476 18.7562 52.0964V49.1329C17.7082 48.9839 16.7088 48.7957 15.7715 48.5713V51.4922Z" fill="url(#paint59_linear_13_865)"/>
<defs>
<linearGradient id="paint0_linear_13_865" x1="22.3435" y1="23.9807" x2="22.3435" y2="27.1283" gradientUnits="userSpaceOnUse">
<stop stop-color="#FFB800"/>
<stop offset="1" stop-color="#C68F00"/>
</linearGradient>
<linearGradient id="paint1_linear_13_865" x1="32.4994" y1="21.1912" x2="32.4994" y2="25.434" gradientUnits="userSpaceOnUse">
<stop stop-color="#FFB800"/>
<stop offset="1" stop-color="#C68F00"/>
</linearGradient>
<linearGradient id="paint2_linear_13_865" x1="17.263" y1="23.9807" x2="17.263" y2="27.1283" gradientUnits="userSpaceOnUse">
<stop stop-color="#FFB800"/>
<stop offset="1" stop-color="#C68F00"/>
</linearGradient>
<linearGradient id="paint3_linear_13_865" x1="12.1854" y1="23.1787" x2="12.1854" y2="26.7039" gradientUnits="userSpaceOnUse">
<stop stop-color="#FFB800"/>
<stop offset="1" stop-color="#C68F00"/>
</linearGradient>
<linearGradient id="paint4_linear_13_865" x1="15.8162" y1="32.21" x2="15.8162" y2="38.568" gradientUnits="userSpaceOnUse">
<stop stop-color="#FFB800"/>
<stop offset="1" stop-color="#C68F00"/>
</linearGradient>
<linearGradient id="paint5_linear_13_865" x1="19.8038" y1="14" x2="19.8038" y2="22.0632" gradientUnits="userSpaceOnUse">
<stop stop-color="#FFB800"/>
<stop offset="1" stop-color="#C68F00"/>
</linearGradient>
<linearGradient id="paint6_linear_13_865" x1="7.10707" y1="21.1912" x2="7.10707" y2="25.4335" gradientUnits="userSpaceOnUse">
<stop stop-color="#FFB800"/>
<stop offset="1" stop-color="#C68F00"/>
</linearGradient>
<linearGradient id="paint7_linear_13_865" x1="7.10707" y1="37.6963" x2="7.10707" y2="41.9386" gradientUnits="userSpaceOnUse">
<stop stop-color="#FFB800"/>
<stop offset="1" stop-color="#C68F00"/>
</linearGradient>
<linearGradient id="paint8_linear_13_865" x1="32.4939" y1="32.0698" x2="32.4939" y2="35.5897" gradientUnits="userSpaceOnUse">
<stop stop-color="#FFB800"/>
<stop offset="1" stop-color="#C68F00"/>
</linearGradient>
<linearGradient id="paint9_linear_13_865" x1="31.9702" y1="38.4004" x2="31.9702" y2="41.9382" gradientUnits="userSpaceOnUse">
<stop stop-color="#FFB800"/>
<stop offset="1" stop-color="#C68F00"/>
</linearGradient>
<linearGradient id="paint10_linear_13_865" x1="25.3755" y1="24.4683" x2="25.3755" y2="30.9505" gradientUnits="userSpaceOnUse">
<stop stop-color="#FFB800"/>
<stop offset="1" stop-color="#C68F00"/>
</linearGradient>
<linearGradient id="paint11_linear_13_865" x1="27.4219" y1="32.8694" x2="27.4219" y2="36.0165" gradientUnits="userSpaceOnUse">
<stop stop-color="#FFB800"/>
<stop offset="1" stop-color="#C68F00"/>
</linearGradient>
<linearGradient id="paint12_linear_13_865" x1="17.2639" y1="32.0662" x2="17.2639" y2="35.5912" gradientUnits="userSpaceOnUse">
<stop stop-color="#FFB800"/>
<stop offset="1" stop-color="#C68F00"/>
</linearGradient>
<linearGradient id="paint13_linear_13_865" x1="12.1854" y1="30.0784" x2="12.1854" y2="34.3212" gradientUnits="userSpaceOnUse">
<stop stop-color="#FFB800"/>
<stop offset="1" stop-color="#C68F00"/>
</linearGradient>
<linearGradient id="paint14_linear_13_865" x1="22.3414" y1="32.8682" x2="22.3414" y2="36.0159" gradientUnits="userSpaceOnUse">
<stop stop-color="#FFB800"/>
<stop offset="1" stop-color="#C68F00"/>
</linearGradient>
<linearGradient id="paint15_linear_13_865" x1="27.4209" y1="23.1787" x2="27.4209" y2="26.7037" gradientUnits="userSpaceOnUse">
<stop stop-color="#FFB800"/>
<stop offset="1" stop-color="#C68F00"/>
</linearGradient>
<linearGradient id="paint16_linear_13_865" x1="23.5108" y1="43.1084" x2="23.5108" y2="47.4554" gradientUnits="userSpaceOnUse">
<stop stop-color="#FFB800"/>
<stop offset="1" stop-color="#C68F00"/>
</linearGradient>
<linearGradient id="paint17_linear_13_865" x1="32.4994" y1="48.5701" x2="32.4994" y2="52.0997" gradientUnits="userSpaceOnUse">
<stop stop-color="#FFB800"/>
<stop offset="1" stop-color="#C68F00"/>
</linearGradient>
<linearGradient id="paint18_linear_13_865" x1="27.422" y1="49.3713" x2="27.422" y2="52.5213" gradientUnits="userSpaceOnUse">
<stop stop-color="#FFB800"/>
<stop offset="1" stop-color="#C68F00"/>
</linearGradient>
<linearGradient id="paint19_linear_13_865" x1="36.8911" y1="48.2432" x2="36.8911" y2="50.8224" gradientUnits="userSpaceOnUse">
<stop stop-color="#FFB800"/>
<stop offset="1" stop-color="#C68F00"/>
</linearGradient>
<linearGradient id="paint20_linear_13_865" x1="49.004" y1="29.2354" x2="49.004" y2="47.4557" gradientUnits="userSpaceOnUse">
<stop stop-color="#FFB800"/>
<stop offset="1" stop-color="#C68F00"/>
</linearGradient>
<linearGradient id="paint21_linear_13_865" x1="49.004" y1="24.1565" x2="49.004" y2="52.5286" gradientUnits="userSpaceOnUse">
<stop stop-color="#FFB800"/>
<stop offset="1" stop-color="#C68F00"/>
</linearGradient>
<linearGradient id="paint22_linear_13_865" x1="49.108" y1="34.9519" x2="49.108" y2="41.8237" gradientUnits="userSpaceOnUse">
<stop stop-color="#FFB800"/>
<stop offset="1" stop-color="#C68F00"/>
</linearGradient>
<linearGradient id="paint23_linear_13_865" x1="27.4209" y1="39.6897" x2="27.4209" y2="43.1991" gradientUnits="userSpaceOnUse">
<stop stop-color="#FFB800"/>
<stop offset="1" stop-color="#C68F00"/>
</linearGradient>
<linearGradient id="paint24_linear_13_865" x1="17.2627" y1="40.4856" x2="17.2627" y2="43.6332" gradientUnits="userSpaceOnUse">
<stop stop-color="#FFB800"/>
<stop offset="1" stop-color="#C68F00"/>
</linearGradient>
<linearGradient id="paint25_linear_13_865" x1="12.1854" y1="39.6838" x2="12.1854" y2="43.2089" gradientUnits="userSpaceOnUse">
<stop stop-color="#FFB800"/>
<stop offset="1" stop-color="#C68F00"/>
</linearGradient>
<linearGradient id="paint26_linear_13_865" x1="22.3434" y1="40.4885" x2="22.3434" y2="43.6336" gradientUnits="userSpaceOnUse">
<stop stop-color="#FFB800"/>
<stop offset="1" stop-color="#C68F00"/>
</linearGradient>
<linearGradient id="paint27_linear_13_865" x1="12.1854" y1="46.583" x2="12.1854" y2="50.8259" gradientUnits="userSpaceOnUse">
<stop stop-color="#FFB800"/>
<stop offset="1" stop-color="#C68F00"/>
</linearGradient>
<linearGradient id="paint28_linear_13_865" x1="22.3414" y1="49.373" x2="22.3414" y2="52.5206" gradientUnits="userSpaceOnUse">
<stop stop-color="#FFB800"/>
<stop offset="1" stop-color="#C68F00"/>
</linearGradient>
<linearGradient id="paint29_linear_13_865" x1="17.2639" y1="48.5713" x2="17.2639" y2="52.0964" gradientUnits="userSpaceOnUse">
<stop stop-color="#FFB800"/>
<stop offset="1" stop-color="#C68F00"/>
</linearGradient>
<linearGradient id="paint30_linear_13_865" x1="22.3435" y1="23.9807" x2="22.3435" y2="27.1283" gradientUnits="userSpaceOnUse">
<stop stop-color="#FFB800"/>
<stop offset="1" stop-color="#C68F00"/>
</linearGradient>
<linearGradient id="paint31_linear_13_865" x1="32.4994" y1="21.1912" x2="32.4994" y2="25.434" gradientUnits="userSpaceOnUse">
<stop stop-color="#FFB800"/>
<stop offset="1" stop-color="#C68F00"/>
</linearGradient>
<linearGradient id="paint32_linear_13_865" x1="17.263" y1="23.9807" x2="17.263" y2="27.1283" gradientUnits="userSpaceOnUse">
<stop stop-color="#FFB800"/>
<stop offset="1" stop-color="#C68F00"/>
</linearGradient>
<linearGradient id="paint33_linear_13_865" x1="12.1854" y1="23.1787" x2="12.1854" y2="26.7039" gradientUnits="userSpaceOnUse">
<stop stop-color="#FFB800"/>
<stop offset="1" stop-color="#C68F00"/>
</linearGradient>
<linearGradient id="paint34_linear_13_865" x1="15.8162" y1="32.21" x2="15.8162" y2="38.568" gradientUnits="userSpaceOnUse">
<stop stop-color="#FFB800"/>
<stop offset="1" stop-color="#C68F00"/>
</linearGradient>
<linearGradient id="paint35_linear_13_865" x1="19.8038" y1="14" x2="19.8038" y2="22.0632" gradientUnits="userSpaceOnUse">
<stop stop-color="#FFB800"/>
<stop offset="1" stop-color="#C68F00"/>
</linearGradient>
<linearGradient id="paint36_linear_13_865" x1="7.10707" y1="21.1912" x2="7.10707" y2="25.4335" gradientUnits="userSpaceOnUse">
<stop stop-color="#FFB800"/>
<stop offset="1" stop-color="#C68F00"/>
</linearGradient>
<linearGradient id="paint37_linear_13_865" x1="7.10707" y1="37.6963" x2="7.10707" y2="41.9386" gradientUnits="userSpaceOnUse">
<stop stop-color="#FFB800"/>
<stop offset="1" stop-color="#C68F00"/>
</linearGradient>
<linearGradient id="paint38_linear_13_865" x1="32.4939" y1="32.0698" x2="32.4939" y2="35.5897" gradientUnits="userSpaceOnUse">
<stop stop-color="#FFB800"/>
<stop offset="1" stop-color="#C68F00"/>
</linearGradient>
<linearGradient id="paint39_linear_13_865" x1="31.9702" y1="38.4004" x2="31.9702" y2="41.9382" gradientUnits="userSpaceOnUse">
<stop stop-color="#FFB800"/>
<stop offset="1" stop-color="#C68F00"/>
</linearGradient>
<linearGradient id="paint40_linear_13_865" x1="25.3755" y1="24.4683" x2="25.3755" y2="30.9505" gradientUnits="userSpaceOnUse">
<stop stop-color="#FFB800"/>
<stop offset="1" stop-color="#C68F00"/>
</linearGradient>
<linearGradient id="paint41_linear_13_865" x1="27.4219" y1="32.8694" x2="27.4219" y2="36.0165" gradientUnits="userSpaceOnUse">
<stop stop-color="#FFB800"/>
<stop offset="1" stop-color="#C68F00"/>
</linearGradient>
<linearGradient id="paint42_linear_13_865" x1="17.2639" y1="32.0662" x2="17.2639" y2="35.5912" gradientUnits="userSpaceOnUse">
<stop stop-color="#FFB800"/>
<stop offset="1" stop-color="#C68F00"/>
</linearGradient>
<linearGradient id="paint43_linear_13_865" x1="12.1854" y1="30.0784" x2="12.1854" y2="34.3212" gradientUnits="userSpaceOnUse">
<stop stop-color="#FFB800"/>
<stop offset="1" stop-color="#C68F00"/>
</linearGradient>
<linearGradient id="paint44_linear_13_865" x1="22.3414" y1="32.8682" x2="22.3414" y2="36.0159" gradientUnits="userSpaceOnUse">
<stop stop-color="#FFB800"/>
<stop offset="1" stop-color="#C68F00"/>
</linearGradient>
<linearGradient id="paint45_linear_13_865" x1="27.4209" y1="23.1787" x2="27.4209" y2="26.7037" gradientUnits="userSpaceOnUse">
<stop stop-color="#FFB800"/>
<stop offset="1" stop-color="#C68F00"/>
</linearGradient>
<linearGradient id="paint46_linear_13_865" x1="23.5108" y1="43.1084" x2="23.5108" y2="47.4554" gradientUnits="userSpaceOnUse">
<stop stop-color="#FFB800"/>
<stop offset="1" stop-color="#C68F00"/>
</linearGradient>
<linearGradient id="paint47_linear_13_865" x1="32.4994" y1="48.5701" x2="32.4994" y2="52.0997" gradientUnits="userSpaceOnUse">
<stop stop-color="#FFB800"/>
<stop offset="1" stop-color="#C68F00"/>
</linearGradient>
<linearGradient id="paint48_linear_13_865" x1="27.422" y1="49.3713" x2="27.422" y2="52.5213" gradientUnits="userSpaceOnUse">
<stop stop-color="#FFB800"/>
<stop offset="1" stop-color="#C68F00"/>
</linearGradient>
<linearGradient id="paint49_linear_13_865" x1="36.8911" y1="48.2432" x2="36.8911" y2="50.8224" gradientUnits="userSpaceOnUse">
<stop stop-color="#FFB800"/>
<stop offset="1" stop-color="#C68F00"/>
</linearGradient>
<linearGradient id="paint50_linear_13_865" x1="49.004" y1="29.2354" x2="49.004" y2="47.4557" gradientUnits="userSpaceOnUse">
<stop stop-color="#FFB800"/>
<stop offset="1" stop-color="#C68F00"/>
</linearGradient>
<linearGradient id="paint51_linear_13_865" x1="49.004" y1="24.1565" x2="49.004" y2="52.5286" gradientUnits="userSpaceOnUse">
<stop stop-color="#FFB800"/>
<stop offset="1" stop-color="#C68F00"/>
</linearGradient>
<linearGradient id="paint52_linear_13_865" x1="49.108" y1="34.9519" x2="49.108" y2="41.8237" gradientUnits="userSpaceOnUse">
<stop stop-color="#FFB800"/>
<stop offset="1" stop-color="#C68F00"/>
</linearGradient>
<linearGradient id="paint53_linear_13_865" x1="27.4209" y1="39.6897" x2="27.4209" y2="43.1991" gradientUnits="userSpaceOnUse">
<stop stop-color="#FFB800"/>
<stop offset="1" stop-color="#C68F00"/>
</linearGradient>
<linearGradient id="paint54_linear_13_865" x1="17.2627" y1="40.4856" x2="17.2627" y2="43.6332" gradientUnits="userSpaceOnUse">
<stop stop-color="#FFB800"/>
<stop offset="1" stop-color="#C68F00"/>
</linearGradient>
<linearGradient id="paint55_linear_13_865" x1="12.1854" y1="39.6838" x2="12.1854" y2="43.2089" gradientUnits="userSpaceOnUse">
<stop stop-color="#FFB800"/>
<stop offset="1" stop-color="#C68F00"/>
</linearGradient>
<linearGradient id="paint56_linear_13_865" x1="22.3434" y1="40.4885" x2="22.3434" y2="43.6336" gradientUnits="userSpaceOnUse">
<stop stop-color="#FFB800"/>
<stop offset="1" stop-color="#C68F00"/>
</linearGradient>
<linearGradient id="paint57_linear_13_865" x1="12.1854" y1="46.583" x2="12.1854" y2="50.8259" gradientUnits="userSpaceOnUse">
<stop stop-color="#FFB800"/>
<stop offset="1" stop-color="#C68F00"/>
</linearGradient>
<linearGradient id="paint58_linear_13_865" x1="22.3414" y1="49.373" x2="22.3414" y2="52.5206" gradientUnits="userSpaceOnUse">
<stop stop-color="#FFB800"/>
<stop offset="1" stop-color="#C68F00"/>
</linearGradient>
<linearGradient id="paint59_linear_13_865" x1="17.2639" y1="48.5713" x2="17.2639" y2="52.0964" gradientUnits="userSpaceOnUse">
<stop stop-color="#FFB800"/>
<stop offset="1" stop-color="#C68F00"/>
</linearGradient>
</defs>
</svg>
