<svg width="68" height="51" viewBox="0 0 68 51" fill="none" xmlns="http://www.w3.org/2000/svg">
<path d="M63.3272 16.7512C60.3127 16.8199 58.3565 19.9828 59.6337 22.7094C57.3371 24.6579 54.1337 26.6626 52.4194 26.2347C52.2506 26.1928 51.3948 25.1329 51.3882 21.1116C51.3856 19.468 51.5269 17.8375 51.6591 16.6741C53.7361 16.2745 55.2699 14.3359 55.0269 12.0966C54.7822 9.84154 52.8192 8.2266 50.5564 8.38573C47.4617 8.60335 45.6495 12.0735 47.2948 14.7479C45.718 17.0981 43.2421 19.8174 41.5121 19.8893C41.2936 19.7663 39.8947 18.7796 38.0142 12.9184C37.2987 10.6866 36.5499 7.64441 36.5499 7.59115C37.6779 6.78453 38.3875 5.43092 38.2939 3.92158C38.1651 1.8451 36.4889 0.155179 34.4135 0.0104478C31.9693 -0.160062 29.9273 1.77888 29.9273 4.18749C29.9273 5.58899 30.6182 6.83216 31.6795 7.59115C31.6795 7.63498 31.0151 10.4241 30.2151 12.9184C28.3347 18.7796 26.9358 19.7663 26.7173 19.8893C24.9873 19.8174 22.5101 17.0968 20.9346 14.7479C22.5792 12.0745 20.7688 8.60413 17.6742 8.38586C15.4113 8.22621 13.4474 9.84089 13.2026 12.0963C12.9595 14.3357 14.4933 16.2745 16.5704 16.6741C16.7026 17.8375 16.8439 19.468 16.8413 21.1116C16.8347 25.1329 15.9789 26.1928 15.8101 26.2347C14.0959 26.6639 10.8924 24.6579 8.59582 22.7094C9.87301 19.983 7.91574 16.8195 4.90178 16.7512C2.6985 16.7012 0.801166 18.4022 0.628039 20.5992C0.439339 22.9931 2.27465 25.0112 4.60329 25.1198C5.63486 27.0875 7.86706 31.6729 9.42246 37.2074C9.50202 37.4906 9.75864 37.6876 10.0528 37.6876H58.1766C58.4708 37.6876 58.7274 37.4906 58.8069 37.2074C60.3625 31.6717 62.5958 27.0875 63.6274 25.1198C65.9545 25.0099 67.7899 22.9935 67.6013 20.5996C67.4285 18.4022 65.5308 16.7009 63.3272 16.7512ZM34.1148 34.5469C32.2369 34.5469 30.9741 32.6534 30.9741 29.836C30.9741 27.0186 32.2369 25.125 34.1148 25.125C35.9926 25.125 37.2554 27.0186 37.2554 29.836C37.2554 32.6534 35.9926 34.5469 34.1148 34.5469Z" fill="url(#paint0_linear_248_166)"/>
<path d="M10.6245 42.6314C10.9128 44.446 11.0831 46.3013 11.0835 48.1497C11.0837 49.3068 12.0088 50.25 13.1658 50.25H55.0637C56.2207 50.25 57.1458 49.3068 57.146 48.1497C57.1464 46.3015 57.3168 44.4461 57.605 42.6314C57.668 42.2342 57.3617 41.875 56.9596 41.875H11.2699C10.8678 41.875 10.5613 42.2342 10.6245 42.6314Z" fill="url(#paint1_linear_248_166)"/>
<defs>
<linearGradient id="paint0_linear_248_166" x1="34.1147" y1="0" x2="34.1147" y2="37.6876" gradientUnits="userSpaceOnUse">
<stop stop-color="#FFB800"/>
<stop offset="1" stop-color="#C68F00"/>
</linearGradient>
<linearGradient id="paint1_linear_248_166" x1="34.1147" y1="41.875" x2="34.1147" y2="50.25" gradientUnits="userSpaceOnUse">
<stop stop-color="#FFB800"/>
<stop offset="1" stop-color="#C68F00"/>
</linearGradient>
</defs>
</svg>
