<svg width="52" height="58" viewBox="0 0 52 58" fill="none" xmlns="http://www.w3.org/2000/svg">
<path d="M23.1245 57.9296C17.9468 54.9234 13.101 52.0842 8.25519 49.245C6.36333 48.1427 4.43828 47.007 2.54643 45.8714C0.886903 44.8693 0.090332 43.4664 0.090332 41.4622C0.156713 36.8526 0.156713 32.2431 0.090332 27.6336C0.090332 25.5961 0.953284 24.1597 2.67919 23.1576C7.1599 20.5523 11.6406 17.9469 16.1213 15.3081C16.8516 14.8739 17.3826 14.8739 18.0796 15.3081C19.4736 16.1766 20.9008 16.9782 22.4607 17.88C19.3408 19.7172 16.3537 21.4875 13.3333 23.2245C11.2092 24.4938 9.05176 25.7296 6.89438 26.9655C5.93185 27.5 5.46719 28.2348 5.50038 29.3705C5.53357 32.811 5.53357 36.2514 5.50038 39.7252C5.46719 40.9277 5.99824 41.6626 7.02714 42.2304C12.0057 45.103 16.9511 48.0425 21.9297 50.8817C22.8922 51.4162 23.2573 52.0174 23.1909 53.1197C23.0581 54.6227 23.1245 56.1259 23.1245 57.9296Z" fill="#FFB800"/>
<path d="M47.586 12.0346C50.6063 13.1704 51.9008 15.2413 51.7348 18.5815C51.5356 22.7903 51.6684 27.0324 51.7016 31.2411C51.7016 33.1451 51.0046 34.5813 49.3782 35.55C42.6738 39.4915 35.9361 43.433 29.2317 47.3411C29.1321 47.3744 29.0325 47.3744 28.7006 47.3744C28.7006 45.5039 28.7006 43.6668 28.7006 41.7963C28.7006 41.028 29.4308 40.861 29.9286 40.5938C34.7745 37.7212 39.6534 34.8819 44.5325 32.0761C45.1962 31.6753 45.8601 31.3079 46.2915 30.6064C46.6898 30.1054 46.4575 29.5376 46.4575 29.0031C46.4907 23.8258 46.4907 18.6817 46.4575 13.5044C46.3911 12.6693 46.5239 12.0013 47.586 12.0346Z" fill="white"/>
<path d="M0.123779 20.5524C0.123779 19.4836 0.19016 18.6486 0.123779 17.8135C-0.0753637 15.3751 0.986732 13.7384 3.11093 12.5359C6.86145 10.4315 10.5788 8.22698 14.2629 5.98901C16.1548 4.85332 17.9802 4.81993 19.8722 5.9556C24.1869 8.4942 28.5348 11.0662 32.8828 13.5714C33.7457 14.0724 34.144 14.6402 34.0776 15.6758C33.978 17.2122 34.0445 18.7821 34.0445 20.5859C30.8582 18.7488 27.8378 17.0118 24.8175 15.2415C22.8593 14.1058 20.8678 13.0035 18.976 11.7676C17.6484 10.8992 16.553 10.9325 15.1923 11.7676C10.4792 14.6402 5.69978 17.3792 0.920351 20.185C0.721208 20.2852 0.522065 20.3855 0.123779 20.5524Z" fill="white"/>
<path d="M37.5627 13.0702C37.1976 12.2018 36.4674 11.7342 35.7041 11.2999C30.6923 8.39392 25.7137 5.4545 20.7019 2.51508C24.4193 -0.62475 26.112 -0.724957 30.0948 1.68002C33.4471 3.71757 36.8325 5.65492 40.2179 7.65906C41.3796 8.36051 42.4085 9.16221 42.5745 10.6319C42.5745 16.7445 42.6076 22.8572 42.5745 28.9698C41.3132 30.1055 39.7532 30.807 38.2597 31.5752C37.5295 31.2078 37.795 30.5064 37.795 29.9385C37.7619 24.8279 37.795 19.7173 37.7619 14.6401C37.795 14.1391 38.0606 13.5378 37.5627 13.0702Z" fill="#FFB800"/>
<path d="M28.6669 57.9965C28.6669 55.8922 28.6669 54.1886 28.6669 52.4851C28.6669 51.9173 28.8329 51.5832 29.3307 51.2826C36.699 46.9736 44.0673 42.6648 51.6015 38.2556C51.6015 39.8924 51.6679 41.2953 51.5683 42.6981C51.5019 43.8673 50.9045 44.8359 49.9088 45.4372C42.9388 49.5791 35.9688 53.6876 28.6669 57.9965Z" fill="#FFB800"/>
<path d="M8.98515 34.4811C8.98515 34.3809 8.98515 34.2472 8.98515 34.147C8.98515 29.3371 8.98515 29.3705 13.3331 27.2328C14.1961 26.7985 14.362 26.9989 14.3288 27.8674C14.2956 30.1388 14.3952 32.4435 14.2956 34.7149C14.2292 35.9174 14.6939 36.5186 15.6896 37.0531C17.8802 38.2221 19.9712 39.5583 22.1618 40.7941C22.8587 41.195 23.2239 41.6292 23.1575 42.4977C23.0911 43.9006 23.1243 45.2701 23.1575 46.673C23.1575 47.5414 22.892 47.5748 22.195 47.174C18.1125 44.769 13.9969 42.3641 9.88132 39.9925C9.25072 39.6251 8.95197 39.1574 8.98515 38.3892C9.01834 37.0531 8.98515 35.7504 8.98515 34.4811Z" fill="white"/>
</svg>
