<svg width="68" height="67" viewBox="0 0 68 67" fill="none" xmlns="http://www.w3.org/2000/svg">
<path fill-rule="evenodd" clip-rule="evenodd" d="M10.8022 14.1882V10.2812C10.8022 8.61462 11.4638 7.01709 12.6426 5.8404C13.8193 4.66162 15.4168 4 17.0834 4H50.5834C52.2501 4 53.8476 4.66162 55.0243 5.8404C56.2031 7.01709 56.8647 8.61462 56.8647 10.2812V14.1882L60.9454 26.4199C61.0166 26.6335 61.0522 26.8554 61.0522 27.0815C61.0522 30.9843 58.3827 34.2631 54.7709 35.1927V56.394C54.7709 58.0606 54.1093 59.6582 52.9305 60.8349C51.7538 62.0136 50.1563 62.6753 48.4897 62.6753H42.2084V48.0713C42.2084 45.852 41.327 43.7226 39.7566 42.1523C38.1863 40.582 36.057 39.7005 33.8376 39.7005C33.8355 39.7005 33.8313 39.7005 33.8293 39.7005C29.2062 39.7005 25.4584 43.4483 25.4584 48.0713V62.6753H19.1772C17.5106 62.6753 15.913 62.0136 14.7363 60.8349C13.5576 59.6582 12.8959 58.0606 12.8959 56.394V35.1927C9.28422 34.2631 6.61469 30.9843 6.61469 27.0815C6.61469 26.8554 6.65027 26.6335 6.72146 26.4199L10.8022 14.1882ZM53.2592 16.6128H14.4076L10.8147 27.3851C10.9697 29.5563 12.7787 31.269 14.9897 31.269C17.3033 31.269 19.1772 29.3951 19.1772 27.0815C19.1772 25.9258 20.1152 24.9878 21.2709 24.9878C22.4267 24.9878 23.3647 25.9258 23.3647 27.0815C23.3647 29.3951 25.2386 31.269 27.5522 31.269C29.7695 31.269 31.5826 29.5479 31.7292 27.3683C31.8046 26.267 32.7195 25.4128 33.823 25.4149C33.823 25.4149 33.8376 25.4149 33.8313 25.4149H33.846C34.9473 25.4149 35.8623 26.2691 35.9377 27.3683C36.0842 29.5479 37.8974 31.269 40.1147 31.269C42.4283 31.269 44.3022 29.3951 44.3022 27.0815C44.3022 25.9258 45.2402 24.9878 46.3959 24.9878C47.5517 24.9878 48.4897 25.9258 48.4897 27.0815C48.4897 29.3951 50.3636 31.269 52.6772 31.269C54.8882 31.269 56.6972 29.5563 56.8521 27.3851L53.2592 16.6128Z" fill="url(#paint0_linear_13_872)"/>
<path fill-rule="evenodd" clip-rule="evenodd" d="M10.8022 14.1882V10.2812C10.8022 8.61462 11.4638 7.01709 12.6426 5.8404C13.8193 4.66162 15.4168 4 17.0834 4H50.5834C52.2501 4 53.8476 4.66162 55.0243 5.8404C56.2031 7.01709 56.8647 8.61462 56.8647 10.2812V14.1882L60.9454 26.4199C61.0166 26.6335 61.0522 26.8554 61.0522 27.0815C61.0522 30.9843 58.3827 34.2631 54.7709 35.1927V56.394C54.7709 58.0606 54.1093 59.6582 52.9305 60.8349C51.7538 62.0136 50.1563 62.6753 48.4897 62.6753H42.2084V48.0713C42.2084 45.852 41.327 43.7226 39.7566 42.1523C38.1863 40.582 36.057 39.7005 33.8376 39.7005C33.8355 39.7005 33.8313 39.7005 33.8293 39.7005C29.2062 39.7005 25.4584 43.4483 25.4584 48.0713V62.6753H19.1772C17.5106 62.6753 15.913 62.0136 14.7363 60.8349C13.5576 59.6582 12.8959 58.0606 12.8959 56.394V35.1927C9.28422 34.2631 6.61469 30.9843 6.61469 27.0815C6.61469 26.8554 6.65027 26.6335 6.72146 26.4199L10.8022 14.1882ZM53.2592 16.6128H14.4076L10.8147 27.3851C10.9697 29.5563 12.7787 31.269 14.9897 31.269C17.3033 31.269 19.1772 29.3951 19.1772 27.0815C19.1772 25.9258 20.1152 24.9878 21.2709 24.9878C22.4267 24.9878 23.3647 25.9258 23.3647 27.0815C23.3647 29.3951 25.2386 31.269 27.5522 31.269C29.7695 31.269 31.5826 29.5479 31.7292 27.3683C31.8046 26.267 32.7195 25.4128 33.823 25.4149C33.823 25.4149 33.8376 25.4149 33.8313 25.4149H33.846C34.9473 25.4149 35.8623 26.2691 35.9377 27.3683C36.0842 29.5479 37.8974 31.269 40.1147 31.269C42.4283 31.269 44.3022 29.3951 44.3022 27.0815C44.3022 25.9258 45.2402 24.9878 46.3959 24.9878C47.5517 24.9878 48.4897 25.9258 48.4897 27.0815C48.4897 29.3951 50.3636 31.269 52.6772 31.269C54.8882 31.269 56.6972 29.5563 56.8521 27.3851L53.2592 16.6128Z" fill="url(#paint1_linear_13_872)"/>
<defs>
<linearGradient id="paint0_linear_13_872" x1="33.8334" y1="4" x2="33.8334" y2="62.6753" gradientUnits="userSpaceOnUse">
<stop stop-color="#FFB800"/>
<stop offset="1" stop-color="#C68F00"/>
</linearGradient>
<linearGradient id="paint1_linear_13_872" x1="33.8334" y1="4" x2="33.8334" y2="62.6753" gradientUnits="userSpaceOnUse">
<stop stop-color="#FFB800"/>
<stop offset="1" stop-color="#C68F00"/>
</linearGradient>
</defs>
</svg>
