<svg width="68" height="67" viewBox="0 0 68 67" fill="none" xmlns="http://www.w3.org/2000/svg">
<path d="M33.9915 19.6471C38.3124 19.6471 41.8151 16.1444 41.8151 11.8236C41.8151 7.50273 38.3124 4 33.9915 4C29.6707 4 26.168 7.50273 26.168 11.8236C26.168 16.1444 29.6707 19.6471 33.9915 19.6471Z" fill="url(#paint0_linear_13_868)"/>
<path d="M61.3781 33.3477L54.0866 31.8267C51.6024 31.3063 49.1497 32.4449 47.8531 34.4691C46.5937 33.8222 45.2394 33.2644 43.7989 32.8014V28.4655C43.8019 25.1849 41.1162 22.5022 37.8472 22.5022H30.3917C27.1053 22.5022 24.4313 25.1849 24.4313 28.4655V32.8244C23.0052 33.2786 21.6653 33.8365 20.3973 34.4863C19.1006 32.4534 16.6451 31.3063 14.1579 31.8267L6.86047 33.3477C3.65741 34.0176 1.57856 37.1948 2.24849 40.4093L4.08009 49.1587C4.74429 52.3646 7.92429 54.4435 11.1303 53.7735L13.4391 53.2905C14.5949 54.9984 16.1936 56.5654 18.2407 57.9052C22.5047 60.7 28.1374 62.2412 34.115 62.2412C43.2612 62.2412 51.1394 58.5637 54.768 53.2818L57.1142 53.7735C60.3173 54.4405 63.4973 52.3646 64.1615 49.1587L65.9959 40.4093C66.6629 37.1948 64.584 34.0176 61.3781 33.3477ZM34.112 59.2538C28.7123 59.2538 23.6518 57.8938 19.8766 55.4066C18.5828 54.5613 17.5103 53.6212 16.6507 52.6148L18.4189 52.2438C21.6277 51.5768 23.7066 48.3996 23.0366 45.1908L21.3949 37.3241C22.3523 36.8094 23.3587 36.358 24.4282 35.9728V37.4075C24.4282 40.6824 27.108 43.3651 30.3886 43.3651H37.8441C41.1162 43.3651 43.796 40.6796 43.796 37.4075V35.898C44.8857 36.2861 45.9092 36.7319 46.8582 37.2379L45.1933 45.1938C44.5291 48.4026 46.605 51.5798 49.8138 52.2468L51.5993 52.6205C48.2699 56.5626 41.6826 59.2538 34.112 59.2538Z" fill="url(#paint1_linear_13_868)"/>
<path d="M59.7912 29.932C64.1121 29.932 67.6148 26.4293 67.6148 22.1085C67.6148 17.7876 64.1121 14.2849 59.7912 14.2849C55.4704 14.2849 51.9677 17.7876 51.9677 22.1085C51.9677 26.4293 55.4704 29.932 59.7912 29.932Z" fill="url(#paint2_linear_13_868)"/>
<path d="M10.0435 29.7679C14.2758 28.8823 16.9786 24.7334 16.1045 20.5038C15.2131 16.2772 11.0728 13.5629 6.83748 14.4485C2.61086 15.3312 -0.103411 19.4773 0.782195 23.7069C1.665 27.9392 5.81111 30.6507 10.0435 29.7679Z" fill="url(#paint3_linear_13_868)"/>
<path d="M33.9915 19.6471C38.3124 19.6471 41.8151 16.1444 41.8151 11.8236C41.8151 7.50273 38.3124 4 33.9915 4C29.6707 4 26.168 7.50273 26.168 11.8236C26.168 16.1444 29.6707 19.6471 33.9915 19.6471Z" fill="url(#paint4_linear_13_868)"/>
<path d="M61.3781 33.3477L54.0866 31.8267C51.6024 31.3063 49.1497 32.4449 47.8531 34.4691C46.5937 33.8222 45.2394 33.2644 43.7989 32.8014V28.4655C43.8019 25.1849 41.1162 22.5022 37.8472 22.5022H30.3917C27.1053 22.5022 24.4313 25.1849 24.4313 28.4655V32.8244C23.0052 33.2786 21.6653 33.8365 20.3973 34.4863C19.1006 32.4534 16.6451 31.3063 14.1579 31.8267L6.86047 33.3477C3.65741 34.0176 1.57856 37.1948 2.24849 40.4093L4.08009 49.1587C4.74429 52.3646 7.92429 54.4435 11.1303 53.7735L13.4391 53.2905C14.5949 54.9984 16.1936 56.5654 18.2407 57.9052C22.5047 60.7 28.1374 62.2412 34.115 62.2412C43.2612 62.2412 51.1394 58.5637 54.768 53.2818L57.1142 53.7735C60.3173 54.4405 63.4973 52.3646 64.1615 49.1587L65.9959 40.4093C66.6629 37.1948 64.584 34.0176 61.3781 33.3477ZM34.112 59.2538C28.7123 59.2538 23.6518 57.8938 19.8766 55.4066C18.5828 54.5613 17.5103 53.6212 16.6507 52.6148L18.4189 52.2438C21.6277 51.5768 23.7066 48.3996 23.0366 45.1908L21.3949 37.3241C22.3523 36.8094 23.3587 36.358 24.4282 35.9728V37.4075C24.4282 40.6824 27.108 43.3651 30.3886 43.3651H37.8441C41.1162 43.3651 43.796 40.6796 43.796 37.4075V35.898C44.8857 36.2861 45.9092 36.7319 46.8582 37.2379L45.1933 45.1938C44.5291 48.4026 46.605 51.5798 49.8138 52.2468L51.5993 52.6205C48.2699 56.5626 41.6826 59.2538 34.112 59.2538Z" fill="url(#paint5_linear_13_868)"/>
<path d="M59.7912 29.932C64.1121 29.932 67.6148 26.4293 67.6148 22.1085C67.6148 17.7876 64.1121 14.2849 59.7912 14.2849C55.4704 14.2849 51.9677 17.7876 51.9677 22.1085C51.9677 26.4293 55.4704 29.932 59.7912 29.932Z" fill="url(#paint6_linear_13_868)"/>
<path d="M10.0435 29.7679C14.2758 28.8823 16.9786 24.7334 16.1045 20.5038C15.2131 16.2772 11.0728 13.5629 6.83748 14.4485C2.61086 15.3312 -0.103411 19.4773 0.782195 23.7069C1.665 27.9392 5.81111 30.6507 10.0435 29.7679Z" fill="url(#paint7_linear_13_868)"/>
<defs>
<linearGradient id="paint0_linear_13_868" x1="33.9915" y1="4" x2="33.9915" y2="19.6471" gradientUnits="userSpaceOnUse">
<stop stop-color="#FFB800"/>
<stop offset="1" stop-color="#C68F00"/>
</linearGradient>
<linearGradient id="paint1_linear_13_868" x1="34.1217" y1="22.5022" x2="34.1217" y2="62.2412" gradientUnits="userSpaceOnUse">
<stop stop-color="#FFB800"/>
<stop offset="1" stop-color="#C68F00"/>
</linearGradient>
<linearGradient id="paint2_linear_13_868" x1="59.7912" y1="14.2849" x2="59.7912" y2="29.932" gradientUnits="userSpaceOnUse">
<stop stop-color="#FFB800"/>
<stop offset="1" stop-color="#C68F00"/>
</linearGradient>
<linearGradient id="paint3_linear_13_868" x1="8.44167" y1="14.281" x2="8.44167" y2="29.9346" gradientUnits="userSpaceOnUse">
<stop stop-color="#FFB800"/>
<stop offset="1" stop-color="#C68F00"/>
</linearGradient>
<linearGradient id="paint4_linear_13_868" x1="33.9915" y1="4" x2="33.9915" y2="19.6471" gradientUnits="userSpaceOnUse">
<stop stop-color="#FFB800"/>
<stop offset="1" stop-color="#C68F00"/>
</linearGradient>
<linearGradient id="paint5_linear_13_868" x1="34.1217" y1="22.5022" x2="34.1217" y2="62.2412" gradientUnits="userSpaceOnUse">
<stop stop-color="#FFB800"/>
<stop offset="1" stop-color="#C68F00"/>
</linearGradient>
<linearGradient id="paint6_linear_13_868" x1="59.7912" y1="14.2849" x2="59.7912" y2="29.932" gradientUnits="userSpaceOnUse">
<stop stop-color="#FFB800"/>
<stop offset="1" stop-color="#C68F00"/>
</linearGradient>
<linearGradient id="paint7_linear_13_868" x1="8.44167" y1="14.281" x2="8.44167" y2="29.9346" gradientUnits="userSpaceOnUse">
<stop stop-color="#FFB800"/>
<stop offset="1" stop-color="#C68F00"/>
</linearGradient>
</defs>
</svg>
